<?xml version="1.0" ?><!DOCTYPE svg  PUBLIC '-//W3C//DTD SVG 1.1//EN'  'http://www.w3.org/Graphics/SVG/1.1/DTD/svg11.dtd'><svg enable-background="new 0 0 512.006 512" height="512px" id="Layer_1" version="1.1" viewBox="0 0 512.006 512" width="512.006px" xml:space="preserve" xmlns="http://www.w3.org/2000/svg" xmlns:xlink="http://www.w3.org/1999/xlink"><g><g><path d="M256.005,0C114.617,0,0,114.615,0,255.992C0,397.385,114.617,512,256.005,512     c141.373,0,256.001-114.615,256.001-256.008C512.006,114.615,397.378,0,256.005,0z" fill="#72C6E9"/><g><rect fill="#364D5C" height="46.969" width="93.823" x="209.088" y="366.077"/><path d="M332.053,407.146H180.625c-6.171,0-11.17,5.003-11.17,11.173v0.234h173.768v-0.234      C343.223,412.15,338.22,407.146,332.053,407.146z" fill="#0D2038"/><polygon fill="#231F20" opacity="0.5" points="302.911,396.315 302.911,367.069 209.088,367.069     "/><path d="M408.744,111.45H103.262c-6.913,0-12.521,5.576-12.521,12.457v230.708      c0,6.877,5.607,12.454,12.521,12.454h305.482c6.917,0,12.521-5.576,12.521-12.454V123.907      C421.265,117.026,415.661,111.45,408.744,111.45z" fill="#364D5C"/><path d="M408.744,105.4H103.262c-6.913,0-12.521,5.576-12.521,12.458v230.708c0,0.065,0.007,0.127,0.01,0.196      h330.503c0.003-0.069,0.01-0.131,0.01-0.196V117.857C421.265,110.976,415.661,105.4,408.744,105.4z" fill="#0E2037"/><rect fill="#FFFFFF" height="221.227" width="317.209" x="96.261" y="122.6"/><rect fill="#D1CCE8" height="17.327" opacity="0.8" width="317.174" x="96.296" y="122.6"/><g><rect fill="#C9C9C9" height="12.035" width="13.473" x="116.615" y="181.169"/><rect fill="#C9C9C9" height="12.031" width="13.473" x="116.615" y="155.9"/><rect fill="#C9C9C9" height="12.031" width="13.473" x="116.615" y="317.154"/></g><g><rect fill="#1ABC9C" height="12.035" width="35.232" x="341.778" y="207.961"/><rect fill="#0E2037" height="12.035" width="46.928" x="154.8" y="207.961"/><rect fill="#F39C12" height="12.035" width="125.942" x="209.088" y="207.961"/></g><rect fill="#C9C9C9" height="12.031" width="13.473" x="116.615" y="207.966"/><rect fill="#C9C9C9" height="12.031" width="13.473" x="116.615" y="288.346"/><g><rect fill="#77B3D4" height="12.035" width="73.571" x="154.8" y="267.135"/><rect fill="#0E2947" height="12.035" width="73.575" x="235.896" y="267.135"/><rect fill="#72C6E9" height="12.035" width="38.787" x="317.199" y="267.135"/></g><rect fill="#C9C9C9" height="12.03" width="13.473" x="116.615" y="261.55"/><g><rect fill="#EA3924" height="12.034" width="35.232" x="154.8" y="237.55"/><rect fill="#F3735C" height="12.034" width="56.943" x="281.512" y="237.55"/><rect fill="#F29C21" height="12.034" width="73.57" x="199.114" y="237.55"/></g><rect fill="#C9C9C9" height="12.03" width="13.473" x="116.615" y="234.758"/><rect fill="#C9C9C9" height="203.919" width="4.681" x="136.748" y="139.908"/><g><polygon fill="#0D2038" points="174.597,296.03 162.01,308.615 161.989,308.596 154.8,315.784 154.821,315.808 154.8,315.827        161.989,323.016 162.01,322.993 174.597,335.581 181.786,328.393 169.196,315.808 181.786,303.215      "/><polygon fill="#0D2038" points="247.889,315.784 240.707,308.596 240.682,308.615 228.094,296.03 220.909,303.215        233.492,315.808 220.905,328.393 228.094,335.581 240.682,322.993 240.707,323.016 247.892,315.827 247.871,315.808      "/><rect fill="#0D2038" height="37.719" transform="matrix(-0.8525 -0.5228 0.5228 -0.8525 207.8904 690.2799)" width="9.439" x="196.628" y="296.946"/></g><g><polygon fill="#0D2038" points="174.979,155.9 162.388,168.485 162.367,168.462 155.181,175.65 155.202,175.673        155.181,175.692 162.367,182.885 162.388,182.861 174.979,195.445 182.164,188.261 169.577,175.673 182.164,163.085      "/><polygon fill="#0D2038" points="255.718,175.65 248.532,168.462 248.508,168.485 235.921,155.9 228.734,163.085        241.322,175.673 228.731,188.261 235.921,195.445 248.508,182.861 248.532,182.885 255.721,175.692 255.697,175.673      "/><rect fill="#0D2038" height="11.173" width="37.268" x="186.53" y="170.334"/></g></g></g></g></svg>